<?xml version="1.0" encoding="UTF-8"?>
<svg width="31.75mm" height="31.75mm" version="1.1" viewBox="0 0 31.75 31.75" xmlns="http://www.w3.org/2000/svg">
<metadata>
<rdfRDF>
<ccWork rdfAbout="">
<dcFormat>image/svg+xml</dcFormat>
<dcType rdfResource="http://purl.org/dc/dcmitype/StillImage"/>
<dcTitle/>
</ccWork>
</rdfRDF>
</metadata>
<g transform="translate(260.8 -35.44)" stroke-linecap="round" stroke-linejoin="round">
<g transform="matrix(.20689 0 0 .20689 -258.07 -5.0103)">
<path d="m63.5 197.52a1.0001 1.0001 0 0 0-0.9865 1.016v16.637c-0.27093-0.67133-0.57653-1.3546-0.93069-2.0531-1.6498-3.2536-4.2334-6.7151-6.7908-10.154a1.0001 1.0001 0 0 0-0.83612-0.41392 1.0001 1.0001 0 0 0-0.76946 1.6076c2.5574 3.4393 5.0879 6.8572 6.613 9.865 1.5012 2.9606 2.1021 5.6299 2.7094 8.4047a1.0001 1.0001 0 0 0 0.92191 0.94206 1.0001 1.0001 0 0 0 0.01292 1e-3 1.0001 1.0001 0 0 0 0.07028 3e-3 1.0001 1.0001 0 0 0 0.07028-3e-3 1.0001 1.0001 0 0 0 0.01292-1e-3 1.0001 1.0001 0 0 0 0.92191-0.94103c0.60738-2.7751 1.208-5.4448 2.7094-8.4057 1.5251-3.0078 4.0556-6.4257 6.613-9.865a1.0001 1.0001 0 0 0-0.76946-1.6076 1.0001 1.0001 0 0 0-0.83612 0.41392c-2.5574 3.4393-5.141 6.9008-6.7908 10.154-0.35462 0.69937-0.66054 1.3835-0.93173 2.0557v-16.639a1.0001 1.0001 0 0 0-1.0134-1.016z" color="#000000" color-rendering="auto" dominant-baseline="auto" fill="#2b791d" image-rendering="auto" shape-rendering="auto" solid-color="#000000" stroke="#3d912d" stroke-width="4" style="font-feature-settings:normal;font-variant-alternates:normal;font-variant-caps:normal;font-variant-ligatures:normal;font-variant-numeric:normal;font-variant-position:normal;isolation:auto;mix-blend-mode:normal;paint-order:stroke fill markers;shape-padding:0;text-decoration-color:#000000;text-decoration-line:none;text-decoration-style:solid;text-indent:0;text-orientation:mixed;text-transform:none;white-space:normal"/>
<path transform="matrix(.92898 0 0 .92898 102.83 16.609)" d="m-42.333 220.8c2.8222 0 5.6444 0 7.0554 2.1163 1.411 2.1163 1.411 6.3501-1.92e-4 16.228-1.4112 9.8782-4.2332 25.399-7.0555 25.399-2.8223-1e-4 -5.6445-15.522-7.0556-25.4-1.4111-9.8778-1.4111-14.111 6.3e-5 -16.228 1.4112-2.1165 4.2336-2.1165 7.0558-2.1165z" fill="#f57c00" stroke="#c76500" stroke-width="2" style="paint-order:stroke fill markers"/>
<path d="m55.562 230.32c0.97046-0.35289 1.9406-0.70567 3.131-0.882s2.6019-0.17633 4.0128-0.17633" fill="none" stroke="#c76500" style="paint-order:stroke fill markers"/>
<path d="m70.908 236.15c-1.3228-0.44092-2.6457-0.88189-3.9245-1.1024s-2.5134-0.22051-3.7484-0.22051" fill="none" stroke="#c76500" style="paint-order:stroke fill markers"/>
<path d="m57.415 243.82c0.76906-0.25635 1.5878-0.52927 2.4695-0.66151s1.8522-0.13224 2.8221-0.13224" fill="none" stroke="#c76500" style="paint-order:stroke fill markers"/>
<path d="m68.262 251.76c-0.70545-0.35272-1.411-0.7055-2.1606-0.88192-0.74963-0.17641-1.5433-0.17641-2.3373-0.17641" fill="none" stroke="#c76500" style="paint-order:stroke fill markers"/>
</g>
<g transform="matrix(.20689 0 0 -.20689 -258.07 107.64)">
<path d="m63.5 197.52a1.0001 1.0001 0 0 0-0.9865 1.016v16.637c-0.27093-0.67133-0.57653-1.3546-0.93069-2.0531-1.6498-3.2536-4.2334-6.7151-6.7908-10.154a1.0001 1.0001 0 0 0-0.83612-0.41392 1.0001 1.0001 0 0 0-0.76946 1.6076c2.5574 3.4393 5.0879 6.8572 6.613 9.865 1.5012 2.9606 2.1021 5.6299 2.7094 8.4047a1.0001 1.0001 0 0 0 0.92191 0.94206 1.0001 1.0001 0 0 0 0.01292 1e-3 1.0001 1.0001 0 0 0 0.07028 3e-3 1.0001 1.0001 0 0 0 0.07028-3e-3 1.0001 1.0001 0 0 0 0.01292-1e-3 1.0001 1.0001 0 0 0 0.92191-0.94103c0.60738-2.7751 1.208-5.4448 2.7094-8.4057 1.5251-3.0078 4.0556-6.4257 6.613-9.865a1.0001 1.0001 0 0 0-0.76946-1.6076 1.0001 1.0001 0 0 0-0.83612 0.41392c-2.5574 3.4393-5.141 6.9008-6.7908 10.154-0.35462 0.69937-0.66054 1.3835-0.93173 2.0557v-16.639a1.0001 1.0001 0 0 0-1.0134-1.016z" color="#000000" color-rendering="auto" dominant-baseline="auto" fill="#2b791d" image-rendering="auto" shape-rendering="auto" solid-color="#000000" stroke="#3d912d" stroke-width="4" style="font-feature-settings:normal;font-variant-alternates:normal;font-variant-caps:normal;font-variant-ligatures:normal;font-variant-numeric:normal;font-variant-position:normal;isolation:auto;mix-blend-mode:normal;paint-order:stroke fill markers;shape-padding:0;text-decoration-color:#000000;text-decoration-line:none;text-decoration-style:solid;text-indent:0;text-orientation:mixed;text-transform:none;white-space:normal"/>
<path transform="matrix(.92898 0 0 .92898 102.83 16.609)" d="m-42.333 220.8c2.8222 0 5.6444 0 7.0554 2.1163 1.411 2.1163 1.411 6.3501-1.92e-4 16.228-1.4112 9.8782-4.2332 25.399-7.0555 25.399-2.8223-1e-4 -5.6445-15.522-7.0556-25.4-1.4111-9.8778-1.4111-14.111 6.3e-5 -16.228 1.4112-2.1165 4.2336-2.1165 7.0558-2.1165z" fill="#f57c00" stroke="#c76500" stroke-width="2" style="paint-order:stroke fill markers"/>
<path d="m55.562 230.32c0.97046-0.35289 1.9406-0.70567 3.131-0.882s2.6019-0.17633 4.0128-0.17633" fill="none" stroke="#c76500" style="paint-order:stroke fill markers"/>
<path d="m70.908 236.15c-1.3228-0.44092-2.6457-0.88189-3.9245-1.1024s-2.5134-0.22051-3.7484-0.22051" fill="none" stroke="#c76500" style="paint-order:stroke fill markers"/>
<path d="m57.415 243.82c0.76906-0.25635 1.5878-0.52927 2.4695-0.66151s1.8522-0.13224 2.8221-0.13224" fill="none" stroke="#c76500" style="paint-order:stroke fill markers"/>
<path d="m68.262 251.76c-0.70545-0.35272-1.411-0.7055-2.1606-0.88192-0.74963-0.17641-1.5433-0.17641-2.3373-0.17641" fill="none" stroke="#c76500" style="paint-order:stroke fill markers"/>
</g>
<g transform="matrix(.14629 -.14629 .14629 .14629 -294.05 20.779)">
<path d="m63.5 197.52a1.0001 1.0001 0 0 0-0.9865 1.016v16.637c-0.27093-0.67133-0.57653-1.3546-0.93069-2.0531-1.6498-3.2536-4.2334-6.7151-6.7908-10.154a1.0001 1.0001 0 0 0-0.83612-0.41392 1.0001 1.0001 0 0 0-0.76946 1.6076c2.5574 3.4393 5.0879 6.8572 6.613 9.865 1.5012 2.9606 2.1021 5.6299 2.7094 8.4047a1.0001 1.0001 0 0 0 0.92191 0.94206 1.0001 1.0001 0 0 0 0.01292 1e-3 1.0001 1.0001 0 0 0 0.07028 3e-3 1.0001 1.0001 0 0 0 0.07028-3e-3 1.0001 1.0001 0 0 0 0.01292-1e-3 1.0001 1.0001 0 0 0 0.92191-0.94103c0.60738-2.7751 1.208-5.4448 2.7094-8.4057 1.5251-3.0078 4.0556-6.4257 6.613-9.865a1.0001 1.0001 0 0 0-0.76946-1.6076 1.0001 1.0001 0 0 0-0.83612 0.41392c-2.5574 3.4393-5.141 6.9008-6.7908 10.154-0.35462 0.69937-0.66054 1.3835-0.93173 2.0557v-16.639a1.0001 1.0001 0 0 0-1.0134-1.016z" color="#000000" color-rendering="auto" dominant-baseline="auto" fill="#2b791d" image-rendering="auto" shape-rendering="auto" solid-color="#000000" stroke="#3d912d" stroke-width="4" style="font-feature-settings:normal;font-variant-alternates:normal;font-variant-caps:normal;font-variant-ligatures:normal;font-variant-numeric:normal;font-variant-position:normal;isolation:auto;mix-blend-mode:normal;paint-order:stroke fill markers;shape-padding:0;text-decoration-color:#000000;text-decoration-line:none;text-decoration-style:solid;text-indent:0;text-orientation:mixed;text-transform:none;white-space:normal"/>
<path transform="matrix(.92898 0 0 .92898 102.83 16.609)" d="m-42.333 220.8c2.8222 0 5.6444 0 7.0554 2.1163 1.411 2.1163 1.411 6.3501-1.92e-4 16.228-1.4112 9.8782-4.2332 25.399-7.0555 25.399-2.8223-1e-4 -5.6445-15.522-7.0556-25.4-1.4111-9.8778-1.4111-14.111 6.3e-5 -16.228 1.4112-2.1165 4.2336-2.1165 7.0558-2.1165z" fill="#f57c00" stroke="#c76500" stroke-width="2" style="paint-order:stroke fill markers"/>
<path d="m55.562 230.32c0.97046-0.35289 1.9406-0.70567 3.131-0.882s2.6019-0.17633 4.0128-0.17633" fill="none" stroke="#c76500" style="paint-order:stroke fill markers"/>
<path d="m70.908 236.15c-1.3228-0.44092-2.6457-0.88189-3.9245-1.1024s-2.5134-0.22051-3.7484-0.22051" fill="none" stroke="#c76500" style="paint-order:stroke fill markers"/>
<path d="m57.415 243.82c0.76906-0.25635 1.5878-0.52927 2.4695-0.66151s1.8522-0.13224 2.8221-0.13224" fill="none" stroke="#c76500" style="paint-order:stroke fill markers"/>
<path d="m68.262 251.76c-0.70545-0.35272-1.411-0.7055-2.1606-0.88192-0.74963-0.17641-1.5433-0.17641-2.3373-0.17641" fill="none" stroke="#c76500" style="paint-order:stroke fill markers"/>
</g>
<g transform="matrix(.14629 -.14629 -.14629 -.14629 -214.39 100.44)">
<path d="m63.5 197.52a1.0001 1.0001 0 0 0-0.9865 1.016v16.637c-0.27093-0.67133-0.57653-1.3546-0.93069-2.0531-1.6498-3.2536-4.2334-6.7151-6.7908-10.154a1.0001 1.0001 0 0 0-0.83612-0.41392 1.0001 1.0001 0 0 0-0.76946 1.6076c2.5574 3.4393 5.0879 6.8572 6.613 9.865 1.5012 2.9606 2.1021 5.6299 2.7094 8.4047a1.0001 1.0001 0 0 0 0.92191 0.94206 1.0001 1.0001 0 0 0 0.01292 1e-3 1.0001 1.0001 0 0 0 0.07028 3e-3 1.0001 1.0001 0 0 0 0.07028-3e-3 1.0001 1.0001 0 0 0 0.01292-1e-3 1.0001 1.0001 0 0 0 0.92191-0.94103c0.60738-2.7751 1.208-5.4448 2.7094-8.4057 1.5251-3.0078 4.0556-6.4257 6.613-9.865a1.0001 1.0001 0 0 0-0.76946-1.6076 1.0001 1.0001 0 0 0-0.83612 0.41392c-2.5574 3.4393-5.141 6.9008-6.7908 10.154-0.35462 0.69937-0.66054 1.3835-0.93173 2.0557v-16.639a1.0001 1.0001 0 0 0-1.0134-1.016z" color="#000000" color-rendering="auto" dominant-baseline="auto" fill="#2b791d" image-rendering="auto" shape-rendering="auto" solid-color="#000000" stroke="#3d912d" stroke-width="4" style="font-feature-settings:normal;font-variant-alternates:normal;font-variant-caps:normal;font-variant-ligatures:normal;font-variant-numeric:normal;font-variant-position:normal;isolation:auto;mix-blend-mode:normal;paint-order:stroke fill markers;shape-padding:0;text-decoration-color:#000000;text-decoration-line:none;text-decoration-style:solid;text-indent:0;text-orientation:mixed;text-transform:none;white-space:normal"/>
<path transform="matrix(.92898 0 0 .92898 102.83 16.609)" d="m-42.333 220.8c2.8222 0 5.6444 0 7.0554 2.1163 1.411 2.1163 1.411 6.3501-1.92e-4 16.228-1.4112 9.8782-4.2332 25.399-7.0555 25.399-2.8223-1e-4 -5.6445-15.522-7.0556-25.4-1.4111-9.8778-1.4111-14.111 6.3e-5 -16.228 1.4112-2.1165 4.2336-2.1165 7.0558-2.1165z" fill="#f57c00" stroke="#c76500" stroke-width="2" style="paint-order:stroke fill markers"/>
<path d="m55.562 230.32c0.97046-0.35289 1.9406-0.70567 3.131-0.882s2.6019-0.17633 4.0128-0.17633" fill="none" stroke="#c76500" style="paint-order:stroke fill markers"/>
<path d="m70.908 236.15c-1.3228-0.44092-2.6457-0.88189-3.9245-1.1024s-2.5134-0.22051-3.7484-0.22051" fill="none" stroke="#c76500" style="paint-order:stroke fill markers"/>
<path d="m57.415 243.82c0.76906-0.25635 1.5878-0.52927 2.4695-0.66151s1.8522-0.13224 2.8221-0.13224" fill="none" stroke="#c76500" style="paint-order:stroke fill markers"/>
<path d="m68.262 251.76c-0.70545-0.35272-1.411-0.7055-2.1606-0.88192-0.74963-0.17641-1.5433-0.17641-2.3373-0.17641" fill="none" stroke="#c76500" style="paint-order:stroke fill markers"/>
</g>
<g transform="matrix(0 -.20689 .20689 0 -301.25 64.456)">
<path d="m63.5 197.52a1.0001 1.0001 0 0 0-0.9865 1.016v16.637c-0.27093-0.67133-0.57653-1.3546-0.93069-2.0531-1.6498-3.2536-4.2334-6.7151-6.7908-10.154a1.0001 1.0001 0 0 0-0.83612-0.41392 1.0001 1.0001 0 0 0-0.76946 1.6076c2.5574 3.4393 5.0879 6.8572 6.613 9.865 1.5012 2.9606 2.1021 5.6299 2.7094 8.4047a1.0001 1.0001 0 0 0 0.92191 0.94206 1.0001 1.0001 0 0 0 0.01292 1e-3 1.0001 1.0001 0 0 0 0.07028 3e-3 1.0001 1.0001 0 0 0 0.07028-3e-3 1.0001 1.0001 0 0 0 0.01292-1e-3 1.0001 1.0001 0 0 0 0.92191-0.94103c0.60738-2.7751 1.208-5.4448 2.7094-8.4057 1.5251-3.0078 4.0556-6.4257 6.613-9.865a1.0001 1.0001 0 0 0-0.76946-1.6076 1.0001 1.0001 0 0 0-0.83612 0.41392c-2.5574 3.4393-5.141 6.9008-6.7908 10.154-0.35462 0.69937-0.66054 1.3835-0.93173 2.0557v-16.639a1.0001 1.0001 0 0 0-1.0134-1.016z" color="#000000" color-rendering="auto" dominant-baseline="auto" fill="#2b791d" image-rendering="auto" shape-rendering="auto" solid-color="#000000" stroke="#3d912d" stroke-width="4" style="font-feature-settings:normal;font-variant-alternates:normal;font-variant-caps:normal;font-variant-ligatures:normal;font-variant-numeric:normal;font-variant-position:normal;isolation:auto;mix-blend-mode:normal;paint-order:stroke fill markers;shape-padding:0;text-decoration-color:#000000;text-decoration-line:none;text-decoration-style:solid;text-indent:0;text-orientation:mixed;text-transform:none;white-space:normal"/>
<path transform="matrix(.92898 0 0 .92898 102.83 16.609)" d="m-42.333 220.8c2.8222 0 5.6444 0 7.0554 2.1163 1.411 2.1163 1.411 6.3501-1.92e-4 16.228-1.4112 9.8782-4.2332 25.399-7.0555 25.399-2.8223-1e-4 -5.6445-15.522-7.0556-25.4-1.4111-9.8778-1.4111-14.111 6.3e-5 -16.228 1.4112-2.1165 4.2336-2.1165 7.0558-2.1165z" fill="#f57c00" stroke="#c76500" stroke-width="2" style="paint-order:stroke fill markers"/>
<path d="m55.562 230.32c0.97046-0.35289 1.9406-0.70567 3.131-0.882s2.6019-0.17633 4.0128-0.17633" fill="none" stroke="#c76500" style="paint-order:stroke fill markers"/>
<path d="m70.908 236.15c-1.3228-0.44092-2.6457-0.88189-3.9245-1.1024s-2.5134-0.22051-3.7484-0.22051" fill="none" stroke="#c76500" style="paint-order:stroke fill markers"/>
<path d="m57.415 243.82c0.76906-0.25635 1.5878-0.52927 2.4695-0.66151s1.8522-0.13224 2.8221-0.13224" fill="none" stroke="#c76500" style="paint-order:stroke fill markers"/>
<path d="m68.262 251.76c-0.70545-0.35272-1.411-0.7055-2.1606-0.88192-0.74963-0.17641-1.5433-0.17641-2.3373-0.17641" fill="none" stroke="#c76500" style="paint-order:stroke fill markers"/>
</g>
<g transform="matrix(0 -.20689 -.20689 0 -188.6 64.456)">
<path d="m63.5 197.52a1.0001 1.0001 0 0 0-0.9865 1.016v16.637c-0.27093-0.67133-0.57653-1.3546-0.93069-2.0531-1.6498-3.2536-4.2334-6.7151-6.7908-10.154a1.0001 1.0001 0 0 0-0.83612-0.41392 1.0001 1.0001 0 0 0-0.76946 1.6076c2.5574 3.4393 5.0879 6.8572 6.613 9.865 1.5012 2.9606 2.1021 5.6299 2.7094 8.4047a1.0001 1.0001 0 0 0 0.92191 0.94206 1.0001 1.0001 0 0 0 0.01292 1e-3 1.0001 1.0001 0 0 0 0.07028 3e-3 1.0001 1.0001 0 0 0 0.07028-3e-3 1.0001 1.0001 0 0 0 0.01292-1e-3 1.0001 1.0001 0 0 0 0.92191-0.94103c0.60738-2.7751 1.208-5.4448 2.7094-8.4057 1.5251-3.0078 4.0556-6.4257 6.613-9.865a1.0001 1.0001 0 0 0-0.76946-1.6076 1.0001 1.0001 0 0 0-0.83612 0.41392c-2.5574 3.4393-5.141 6.9008-6.7908 10.154-0.35462 0.69937-0.66054 1.3835-0.93173 2.0557v-16.639a1.0001 1.0001 0 0 0-1.0134-1.016z" color="#000000" color-rendering="auto" dominant-baseline="auto" fill="#2b791d" image-rendering="auto" shape-rendering="auto" solid-color="#000000" stroke="#3d912d" stroke-width="4" style="font-feature-settings:normal;font-variant-alternates:normal;font-variant-caps:normal;font-variant-ligatures:normal;font-variant-numeric:normal;font-variant-position:normal;isolation:auto;mix-blend-mode:normal;paint-order:stroke fill markers;shape-padding:0;text-decoration-color:#000000;text-decoration-line:none;text-decoration-style:solid;text-indent:0;text-orientation:mixed;text-transform:none;white-space:normal"/>
<path transform="matrix(.92898 0 0 .92898 102.83 16.609)" d="m-42.333 220.8c2.8222 0 5.6444 0 7.0554 2.1163 1.411 2.1163 1.411 6.3501-1.92e-4 16.228-1.4112 9.8782-4.2332 25.399-7.0555 25.399-2.8223-1e-4 -5.6445-15.522-7.0556-25.4-1.4111-9.8778-1.4111-14.111 6.3e-5 -16.228 1.4112-2.1165 4.2336-2.1165 7.0558-2.1165z" fill="#f57c00" stroke="#c76500" stroke-width="2" style="paint-order:stroke fill markers"/>
<path d="m55.562 230.32c0.97046-0.35289 1.9406-0.70567 3.131-0.882s2.6019-0.17633 4.0128-0.17633" fill="none" stroke="#c76500" style="paint-order:stroke fill markers"/>
<path d="m70.908 236.15c-1.3228-0.44092-2.6457-0.88189-3.9245-1.1024s-2.5134-0.22051-3.7484-0.22051" fill="none" stroke="#c76500" style="paint-order:stroke fill markers"/>
<path d="m57.415 243.82c0.76906-0.25635 1.5878-0.52927 2.4695-0.66151s1.8522-0.13224 2.8221-0.13224" fill="none" stroke="#c76500" style="paint-order:stroke fill markers"/>
<path d="m68.262 251.76c-0.70545-0.35272-1.411-0.7055-2.1606-0.88192-0.74963-0.17641-1.5433-0.17641-2.3373-0.17641" fill="none" stroke="#c76500" style="paint-order:stroke fill markers"/>
</g>
<g transform="matrix(-.14629 -.14629 .14629 -.14629 -275.47 100.44)">
<path d="m63.5 197.52a1.0001 1.0001 0 0 0-0.9865 1.016v16.637c-0.27093-0.67133-0.57653-1.3546-0.93069-2.0531-1.6498-3.2536-4.2334-6.7151-6.7908-10.154a1.0001 1.0001 0 0 0-0.83612-0.41392 1.0001 1.0001 0 0 0-0.76946 1.6076c2.5574 3.4393 5.0879 6.8572 6.613 9.865 1.5012 2.9606 2.1021 5.6299 2.7094 8.4047a1.0001 1.0001 0 0 0 0.92191 0.94206 1.0001 1.0001 0 0 0 0.01292 1e-3 1.0001 1.0001 0 0 0 0.07028 3e-3 1.0001 1.0001 0 0 0 0.07028-3e-3 1.0001 1.0001 0 0 0 0.01292-1e-3 1.0001 1.0001 0 0 0 0.92191-0.94103c0.60738-2.7751 1.208-5.4448 2.7094-8.4057 1.5251-3.0078 4.0556-6.4257 6.613-9.865a1.0001 1.0001 0 0 0-0.76946-1.6076 1.0001 1.0001 0 0 0-0.83612 0.41392c-2.5574 3.4393-5.141 6.9008-6.7908 10.154-0.35462 0.69937-0.66054 1.3835-0.93173 2.0557v-16.639a1.0001 1.0001 0 0 0-1.0134-1.016z" color="#000000" color-rendering="auto" dominant-baseline="auto" fill="#2b791d" image-rendering="auto" shape-rendering="auto" solid-color="#000000" stroke="#3d912d" stroke-width="4" style="font-feature-settings:normal;font-variant-alternates:normal;font-variant-caps:normal;font-variant-ligatures:normal;font-variant-numeric:normal;font-variant-position:normal;isolation:auto;mix-blend-mode:normal;paint-order:stroke fill markers;shape-padding:0;text-decoration-color:#000000;text-decoration-line:none;text-decoration-style:solid;text-indent:0;text-orientation:mixed;text-transform:none;white-space:normal"/>
<path transform="matrix(.92898 0 0 .92898 102.83 16.609)" d="m-42.333 220.8c2.8222 0 5.6444 0 7.0554 2.1163 1.411 2.1163 1.411 6.3501-1.92e-4 16.228-1.4112 9.8782-4.2332 25.399-7.0555 25.399-2.8223-1e-4 -5.6445-15.522-7.0556-25.4-1.4111-9.8778-1.4111-14.111 6.3e-5 -16.228 1.4112-2.1165 4.2336-2.1165 7.0558-2.1165z" fill="#f57c00" stroke="#c76500" stroke-width="2" style="paint-order:stroke fill markers"/>
<path d="m55.562 230.32c0.97046-0.35289 1.9406-0.70567 3.131-0.882s2.6019-0.17633 4.0128-0.17633" fill="none" stroke="#c76500" style="paint-order:stroke fill markers"/>
<path d="m70.908 236.15c-1.3228-0.44092-2.6457-0.88189-3.9245-1.1024s-2.5134-0.22051-3.7484-0.22051" fill="none" stroke="#c76500" style="paint-order:stroke fill markers"/>
<path d="m57.415 243.82c0.76906-0.25635 1.5878-0.52927 2.4695-0.66151s1.8522-0.13224 2.8221-0.13224" fill="none" stroke="#c76500" style="paint-order:stroke fill markers"/>
<path d="m68.262 251.76c-0.70545-0.35272-1.411-0.7055-2.1606-0.88192-0.74963-0.17641-1.5433-0.17641-2.3373-0.17641" fill="none" stroke="#c76500" style="paint-order:stroke fill markers"/>
</g>
<g transform="matrix(-.14629 -.14629 -.14629 .14629 -195.81 20.779)">
<path d="m63.5 197.52a1.0001 1.0001 0 0 0-0.9865 1.016v16.637c-0.27093-0.67133-0.57653-1.3546-0.93069-2.0531-1.6498-3.2536-4.2334-6.7151-6.7908-10.154a1.0001 1.0001 0 0 0-0.83612-0.41392 1.0001 1.0001 0 0 0-0.76946 1.6076c2.5574 3.4393 5.0879 6.8572 6.613 9.865 1.5012 2.9606 2.1021 5.6299 2.7094 8.4047a1.0001 1.0001 0 0 0 0.92191 0.94206 1.0001 1.0001 0 0 0 0.01292 1e-3 1.0001 1.0001 0 0 0 0.07028 3e-3 1.0001 1.0001 0 0 0 0.07028-3e-3 1.0001 1.0001 0 0 0 0.01292-1e-3 1.0001 1.0001 0 0 0 0.92191-0.94103c0.60738-2.7751 1.208-5.4448 2.7094-8.4057 1.5251-3.0078 4.0556-6.4257 6.613-9.865a1.0001 1.0001 0 0 0-0.76946-1.6076 1.0001 1.0001 0 0 0-0.83612 0.41392c-2.5574 3.4393-5.141 6.9008-6.7908 10.154-0.35462 0.69937-0.66054 1.3835-0.93173 2.0557v-16.639a1.0001 1.0001 0 0 0-1.0134-1.016z" color="#000000" color-rendering="auto" dominant-baseline="auto" fill="#2b791d" image-rendering="auto" shape-rendering="auto" solid-color="#000000" stroke="#3d912d" stroke-width="4" style="font-feature-settings:normal;font-variant-alternates:normal;font-variant-caps:normal;font-variant-ligatures:normal;font-variant-numeric:normal;font-variant-position:normal;isolation:auto;mix-blend-mode:normal;paint-order:stroke fill markers;shape-padding:0;text-decoration-color:#000000;text-decoration-line:none;text-decoration-style:solid;text-indent:0;text-orientation:mixed;text-transform:none;white-space:normal"/>
<path transform="matrix(.92898 0 0 .92898 102.83 16.609)" d="m-42.333 220.8c2.8222 0 5.6444 0 7.0554 2.1163 1.411 2.1163 1.411 6.3501-1.92e-4 16.228-1.4112 9.8782-4.2332 25.399-7.0555 25.399-2.8223-1e-4 -5.6445-15.522-7.0556-25.4-1.4111-9.8778-1.4111-14.111 6.3e-5 -16.228 1.4112-2.1165 4.2336-2.1165 7.0558-2.1165z" fill="#f57c00" stroke="#c76500" stroke-width="2" style="paint-order:stroke fill markers"/>
<path d="m55.562 230.32c0.97046-0.35289 1.9406-0.70567 3.131-0.882s2.6019-0.17633 4.0128-0.17633" fill="none" stroke="#c76500" style="paint-order:stroke fill markers"/>
<path d="m70.908 236.15c-1.3228-0.44092-2.6457-0.88189-3.9245-1.1024s-2.5134-0.22051-3.7484-0.22051" fill="none" stroke="#c76500" style="paint-order:stroke fill markers"/>
<path d="m57.415 243.82c0.76906-0.25635 1.5878-0.52927 2.4695-0.66151s1.8522-0.13224 2.8221-0.13224" fill="none" stroke="#c76500" style="paint-order:stroke fill markers"/>
<path d="m68.262 251.76c-0.70545-0.35272-1.411-0.7055-2.1606-0.88192-0.74963-0.17641-1.5433-0.17641-2.3373-0.17641" fill="none" stroke="#c76500" style="paint-order:stroke fill markers"/>
</g>
</g>
</svg>
